# xmcd
#
# Track frame offsets:
#	150
#	15437
#	37217
#	53685
#	67932
#	83312
#	98567
#	118530
#	134287
#	153605
#	175150
#	190440
#	212217
#	228682
#	242932
#	258312
#	273567
#	293527
#	309287
#
# Disc length: 4410 seconds
#
# Revision: 1
# Processed by: cddbd v1.5.2PL0 Copyright (c) Steve Scherf et al.
# Submitted via: audiograbber 1.83.01
#
DISCID=04113813
DTITLE=Various Artist - CHM0307
DYEAR=2003
DGENRE=Country
TTITLE0=Randy Travis - Three Wooden Crosses vocal
TTITLE1=Craig Morgan - Almost Home vocal
TTITLE2=Lonestar - My Front Porch Looking In vocal
TTITLE3=?Tracy Byrd - The Truty About Men vocal
TTITLE4=Toby Keith W/Willie Nelson - Beer For My Horses vocal
TTITLE5=George Strait - Tell Me Something Bad About Tulsa vocal
TTITLE6=Dixie Chicks - Truth No. 2 vocal 7
TTITLE7=Trick Pony - A Boy Like You vocal 8
TTITLE8=The Warren Brothers - Hey, Mr. President vocal
TTITLE9=Shania Twain - Forever And For Always vocal
TTITLE10=Randy Travis - Three Wooden Crosses
TTITLE11=Craig Morgan - Almost Home
TTITLE12=Lonestar - My Front Porch Looking In
TTITLE13=Tracy Byrd - The Truth About Men
TTITLE14=Toby Keith W/ Willie Nelson - Beer For My Horses5
TTITLE15=George Strait - Tell Me Something Bad About Tulsa
TTITLE16=Dixie Chicks - Truth No. 2
TTITLE17=Trick Pony - A Boy Like You8
TTITLE18=Shania Twain - Forever And For Always
EXTD=
EXTT0=
EXTT1=
EXTT2=
EXTT3=
EXTT4=
EXTT5=
EXTT6=
EXTT7=
EXTT8=
EXTT9=
EXTT10=
EXTT11=
EXTT12=
EXTT13=
EXTT14=
EXTT15=
EXTT16=
EXTT17=
EXTT18=
PLAYORDER=
